PathFileType	3	(X/Y/Z)	D:\Jess\Healthy\Labelled\HA01\20250317\SRRun01.trc
DataRate	CameraRate	NumFrames	NumMarkers	Units	OrigDataRate	OrigDataStartFrame	OrigNumFrames
250.0	250.0	5	37	mm	250.0	35625	2501
Frame#	Time	C7			T10			CLAV			LSHO			RSHO			LASIS			RASIS			LPSIS			RPSIS			LILCR			RILCR			LGTR			LTHI			LLTHI			LLEP			LMEP			LPSH			LLSH			LDSH			LLMAL			LMMAL			LTOE			L5TH			LHEE			RGTR			RTHI			RLTHI			RLEP			RMEP			RPSH			RLSH			RDSH			RLMAL			RMMAL			RTOE			R5TH			RHEE			
		X1	Y1	Z1	X2	Y2	Z2	X3	Y3	Z3	X4	Y4	Z4	X5	Y5	Z5	X6	Y6	Z6	X7	Y7	Z7	X8	Y8	Z8	X9	Y9	Z9	X10	Y10	Z10	X11	Y11	Z11	X12	Y12	Z12	X13	Y13	Z13	X14	Y14	Z14	X15	Y15	Z15	X16	Y16	Z16	X17	Y17	Z17	X18	Y18	Z18	X19	Y19	Z19	X20	Y20	Z20	X21	Y21	Z21	X22	Y22	Z22	X23	Y23	Z23	X24	Y24	Z24	X25	Y25	Z25	X26	Y26	Z26	X27	Y27	Z27	X28	Y28	Z28	X29	Y29	Z29	X30	Y30	Z30	X31	Y31	Z31	X32	Y32	Z32	X33	Y33	Z33	X34	Y34	Z34	X35	Y35	Z35	X36	Y36	Z36	X37	Y37	Z37	

626	142.496	1069.689185644968	1520.891776984685	-313.0931785791539	988.7349053964221	1307.580526703031	-270.7706867488154	1195.140139125669	1435.352930202563	-365.2224464829379	1190.278644142994	1508.798075597155	-208.5773792611198	1079.74251224249	1510.144092010416	-465.0379535855346	1175.319977559742	1019.543202620991	-454.1559291648376	1221.76299272847	984.9052832126965	-223.5987279437647	992.6216967794762	1076.804477781326	-337.0193223424779	1010.56980315765	1075.231301568216	-279.0638103102551	1091.876137343574	1100.154141072195	-497.063655387288	1177.224357097388	1081.785839865338	-165.5878947118675	1111.443248243538	932.8619290667712	-531.3287191992766	1243.267762890767	808.112036000386	-453.3497061962303	1179.273197765544	675.4653837498224	-494.0539532239202	1225.626108156615	542.158457071895	-475.8829945253729	nan	nan	nan	1300.284798525338	457.7101577789525	-434.0944348643105	1216.582519175272	316.1093248063053	-458.4720542692127	1297.247198423497	234.9293457777802	-416.1248966533611	1257.923169580343	114.5748544742237	-422.4529759918094	nan	nan	nan	1410.856317749793	91.93921570776219	-425.0630532834953	1373.965334003686	42.37251215758635	-449.8015204699437	1202.05787784682	86.8096211397586	-350.3772261898041	1131.414990408853	906.1303679914772	-138.0656277514251	1190.699666501394	746.8972896752938	-260.9202394825151	1078.488672317115	656.3004816482418	-181.9391312696151	1003.77522405869	522.6573282865305	-198.533268330339	nan	nan	nan	954.0096997207472	415.8805117170492	-242.5408635458182	817.2347356424725	432.5341818948386	-189.7942944567184	759.8700975959556	323.7502484498621	-236.9100903550245	658.4654685224546	317.738100024813	-207.4178909050271	nan	nan	nan	625.0232981842179	170.1589939135297	-214.4482779297301	590.0469773030269	201.5501192322578	-175.254805156744	612.6153777979879	382.266001488385	-269.4319978505122	
627	142.5	1069.298678948981	1518.097082145256	-313.4608649166643	988.2009542520884	1304.723470871369	-271.646130598938	1195.109746823016	1432.769586464088	-365.3445322111502	1189.832752243619	1505.856047403606	-208.4370991641222	1080.024827478801	1507.499177714271	-465.6450758503454	1174.888113712115	1016.768571834648	-455.1956133512361	1222.037954920181	982.8439857494525	-224.5518748452962	992.4905530454471	1073.489180513176	-337.3706892594957	1010.554008257783	1071.968918510148	-279.5381293772164	1091.411019863627	1097.017421997619	-497.8302117601486	1176.902207544551	1079.270355921203	-165.8499584939006	1110.127888637008	929.0127530620716	-531.9933623995205	1243.077654781177	805.7243812196291	-454.6828454332872	1179.11144041237	672.5841940116137	-494.8917128959754	1225.061574902419	539.4365951606868	-476.793643607812	nan	nan	nan	1298.365686979998	454.3209633045406	-434.0622810545066	1213.349707493096	313.6387123818184	-459.0356890572536	1292.080374570071	231.738781318123	-415.1289414223456	1250.434100539804	112.6294095091314	-421.5343701501383	nan	nan	nan	1403.187282192487	88.17305636580981	-423.5640555386001	1365.337463256302	39.90555914642758	-449.4578733611008	1193.958107375225	85.95491230526342	-349.474434152716	1132.714671531693	902.9921053161756	-138.801920904743	1193.100552507846	744.6326744639488	-261.5697617259397	1082.291122385933	652.6572526192037	-182.3013064340843	1008.689006318793	519.2181011869659	-198.7381734600713	nan	nan	nan	957.9441849564505	413.2268921683895	-242.1511614893685	821.1355751350178	433.056534822058	-190.2035153659095	761.7159209840041	325.3083652401594	-236.7308186824038	660.1117450464134	321.646722225799	-207.2877874100311	nan	nan	nan	624.8570976832086	174.5993383094725	-213.9252207045037	590.2577606691807	206.5321434995739	-174.8023388568786	615.0003482098479	386.6325832939045	-269.4555082292513	
628	142.504	1068.863120578719	1515.171808535291	-313.8772217234255	987.7036271620007	1301.654614996741	-272.6186295159296	1195.107313708993	1430.139801602448	-365.4797228346378	1189.341454865273	1502.822199462868	-208.2474205435593	1080.302728852561	1504.768134383213	-466.3145685757404	1174.369083545818	1013.810842722286	-456.2699225656974	1222.243352532486	980.5757411473816	-225.5485379555682	992.3090595166415	1069.921088007844	-337.667009891066	1010.469440390483	1068.456423516392	-279.9690806083348	1090.917773342125	1093.64732835007	-498.631882203883	1176.673548073399	1076.507227408964	-166.1288304118218	1108.734379664501	925.1218403282609	-532.691000759037	1242.989101847985	803.5552035859338	-456.046833180504	1179.057011190354	669.7757070337334	-495.812351911504	1224.692721912367	536.7293936939149	-477.7205533527955	nan	nan	nan	1296.526844849387	450.9040320620902	-433.899166657642	1210.01563880663	311.2787534151548	-459.4867839869476	1286.62420344055	228.6100974872938	-413.9083377470968	1242.395309830799	110.9031028670344	-420.3541083146974	nan	nan	nan	1394.931748744608	84.5542223008534	-422.0137047982595	1356.070828814911	37.68156142302148	-449.1104236944697	1185.298775989263	85.24055347754422	-348.3519240990423	1134.046817272427	899.6110246665866	-139.5222294675228	1195.458680783765	742.2536900340572	-262.0919976556814	1086.085889560673	649.0170092399597	-182.5442342169159	1013.675879557811	515.7957428122024	-198.826708463133	nan	nan	nan	962.0820967209925	410.5652093306711	-241.6778784427289	825.3086727698928	433.5309994822156	-190.5692739547601	763.9157382250639	326.7928790965159	-236.4840308346249	662.1840858165693	325.4167479469125	-207.1091912351728	nan	nan	nan	625.0952266116043	178.9226578813062	-213.4482575665579	590.8953693374997	211.3689160598817	-174.3713844183718	617.8267442739498	390.8872722015346	-269.3661209558898	
629	142.508	1068.392870980068	1512.143798600179	-314.3439476196136	987.2484622470153	1298.393437596194	-273.6899969842973	1195.135761441106	1427.473280186373	-365.6279204717879	1188.816524065549	1499.713222462857	-208.0104442596025	1080.582911334684	1501.968415433338	-467.0495936643862	1173.75456935622	1010.676271623213	-457.3868682361476	1222.368550079129	978.095844018884	-226.5934913904122	992.0707253958785	1066.121051405239	-337.9089799059936	1010.306100462796	1064.71000175001	-280.3561864177236	1090.396664826524	1090.050148536937	-499.4715031226581	1176.543419573033	1073.491675690763	-166.428185319904	1107.26951880836	921.2143263648794	-533.4178971125951	1242.980262578913	801.5759747821483	-457.4428188227035	1179.097299639069	667.0545265643445	-496.8108817581154	1224.506731230138	534.0491690188293	-478.6499737940804	nan	nan	nan	1294.768257635686	447.4956701396535	-433.5975610342534	1206.590549408433	309.0595870097911	-459.8034895856089	1280.918044452072	225.587021687468	-412.4766367192041	1233.88158155095	109.4260935617371	-418.9218666029465	nan	nan	nan	1386.16151027396	81.1495446942608	-420.4354846211203	1346.262522492197	35.74440633012613	-448.7579183835937	1176.158668827217	84.66182068006736	-347.0304746973212	1135.412373841966	896.0008875237279	-140.2268394856563	1197.764241569489	739.7824603159464	-262.4903141712193	1089.873012320042	645.3953842379958	-182.6676514417379	1018.742726614943	512.401925785415	-198.7978107608939	nan	nan	nan	966.4250275605341	407.9090562824344	-241.1306569884013	829.7561647628149	433.9530943602587	-190.8837064937725	766.4687675795847	328.2011947577536	-236.1723705308837	664.6763061958462	329.0400746334957	-206.8869771895959	nan	nan	nan	625.7371007909127	183.1196125512244	-213.002995223814	591.9552644094483	216.0547547448472	-173.9538365430365	621.0905375420523	395.0150789022599	-269.1825275140141	
630	142.512	1067.899339953355	1509.044503762141	-314.8614610500747	986.8370668654936	1294.965586840872	-274.8597836685597	1195.196306469652	1424.777532115463	-365.7877927041941	1188.270559476467	1496.546186680044	-207.7296096651951	1080.873404374568	1499.117915430938	-467.8519088457726	1173.037653006529	1007.374815602727	-458.5561332598099	1222.40320057902	975.4025266389453	-227.6903466836616	991.770316662642	1062.114138298519	-338.0966683582109	1010.054573311747	1060.750247428395	-280.69937105916	1089.844002629831	1086.235918309819	-500.3516254287974	1176.512769220828	1070.221028447463	-166.751262679442	1105.739959964306	917.3170582163694	-534.1697003636622	1243.025894811188	799.7551876341877	-458.8722727641732	1179.217150161991	664.4329669209759	-497.8780595809706	1224.485469484135	531.4092450724579	-479.5672252780043	nan	nan	nan	1293.085328845341	444.1325377882661	-433.1526560487702	1203.084386453494	307.0079077244142	-459.9709830263155	1275.000299352339	222.7087303692981	-410.8549285162715	1224.969730514335	108.2220120373491	-417.2574265431749	nan	nan	nan	1376.949218963813	78.01218050020768	-418.855837483672	1336.008029301192	34.12406051974689	-448.4007335437489	1166.616735428206	84.21485593080044	-345.5381504311829	1136.811757515389	892.1807103073103	-140.9161422304785	1200.009797920729	737.2449753529366	-262.7711497112444	1093.653841468364	641.8086806867092	-182.6736068323269	1023.89753548253	509.0487323439071	-198.6525900921546	nan	nan	nan	970.9747957989409	405.2720411131291	-240.5196736769473	834.4785699348215	434.3196513243437	-191.1402715370546	769.3732769223171	329.5318204576298	-235.799625430195	667.5805815068413	332.5098896814828	-206.6273533842331	nan	nan	nan	626.783852021704	187.1812447468577	-212.5746807090005	593.4345692167029	220.5842876011855	-173.5409702865016	624.7831056723837	399.0008071138864	-268.92500604673	
